<svg width="16" height="20" viewBox="0 0 16 20" fill="none" xmlns="http://www.w3.org/2000/svg">
<path d="M3 5C3 3.89543 3.89543 3 5 3H11C12.1046 3 13 3.89543 13 5V6C13 7.10457 12.1046 8 11 8H5C3.89543 8 3 7.10457 3 6V5ZM5 4.5C4.72386 4.5 4.5 4.72386 4.5 5V6C4.5 6.27614 4.72386 6.5 5 6.5H11C11.2761 6.5 11.5 6.27614 11.5 6V5C11.5 4.72386 11.2761 4.5 11 4.5H5ZM4.25 12.5C4.94036 12.5 5.5 11.9404 5.5 11.25C5.5 10.5596 4.94036 10 4.25 10C3.55964 10 3 10.5596 3 11.25C3 11.9404 3.55964 12.5 4.25 12.5ZM5.5 15.25C5.5 15.9404 4.94036 16.5 4.25 16.5C3.55964 16.5 3 15.9404 3 15.25C3 14.5596 3.55964 14 4.25 14C4.94036 14 5.5 14.5596 5.5 15.25ZM11.75 12.5C12.4404 12.5 13 11.9404 13 11.25C13 10.5596 12.4404 10 11.75 10C11.0596 10 10.5 10.5596 10.5 11.25C10.5 11.9404 11.0596 12.5 11.75 12.5ZM13 15.25C13 15.9404 12.4404 16.5 11.75 16.5C11.0596 16.5 10.5 15.9404 10.5 15.25C10.5 14.5596 11.0596 14 11.75 14C12.4404 14 13 14.5596 13 15.25ZM8 12.5C8.69036 12.5 9.25 11.9404 9.25 11.25C9.25 10.5596 8.69036 10 8 10C7.30964 10 6.75 10.5596 6.75 11.25C6.75 11.9404 7.30964 12.5 8 12.5ZM9.25 15.25C9.25 15.9404 8.69036 16.5 8 16.5C7.30964 16.5 6.75 15.9404 6.75 15.25C6.75 14.5596 7.30964 14 8 14C8.69036 14 9.25 14.5596 9.25 15.25ZM3.25 0C1.45507 0 0 1.45507 0 3.25V16.75C0 18.5449 1.45507 20 3.25 20H12.75C14.5449 20 16 18.5449 16 16.75V3.25C16 1.45507 14.5449 0 12.75 0H3.25ZM1.5 3.25C1.5 2.2835 2.2835 1.5 3.25 1.5H12.75C13.7165 1.5 14.5 2.2835 14.5 3.25V16.75C14.5 17.7165 13.7165 18.5 12.75 18.5H3.25C2.2835 18.5 1.5 17.7165 1.5 16.75V3.25Z" fill="#04071E"/>
</svg>
