<svg width="20" height="18" viewBox="0 0 20 18" fill="none" xmlns="http://www.w3.org/2000/svg">
<path d="M10.8197 1.57717L9.99895 2.39967L9.1757 1.57642C7.07663 -0.522646 3.67337 -0.522646 1.5743 1.57642C-0.524767 3.67549 -0.524767 7.07875 1.5743 9.17782L9.46967 17.0732C9.76256 17.3661 10.2374 17.3661 10.5303 17.0732L18.4318 9.17636C20.5262 7.07033 20.5298 3.67661 18.4303 1.57717C16.3274 -0.525724 12.9226 -0.52572 10.8197 1.57717ZM17.3682 8.11864L10 15.4822L2.63496 8.11716C1.12168 6.60388 1.12168 4.15036 2.63496 2.63708C4.14824 1.1238 6.60176 1.1238 8.11504 2.63708L9.47248 3.99453C9.77035 4.29239 10.255 4.28659 10.5457 3.98168L11.8803 2.63783C13.3974 1.12073 15.8526 1.12072 17.3697 2.63783C18.8833 4.15147 18.8807 6.59771 17.3682 8.11864Z" fill="#04071E"/>
</svg>
